<?xml version="1.0" encoding="UTF-8"?>
<svg width="262px" height="156px" viewBox="0 0 262 156" version="1.1" xmlns="http://www.w3.org/2000/svg" xmlns:xlink="http://www.w3.org/1999/xlink">
    <!-- Generator: sketchtool 61 (101010) - https://sketch.com -->
    <title>CC812F0D-F9F0-4D68-9347-3579CDA181A3</title>
    <desc>Created with sketchtool.</desc>
    <g id="V2" stroke="none" stroke-width="1" fill="none" fill-rule="evenodd">
        <g id="Sophos-Labs-Intelix---Desktop" transform="translate(-461.000000, -1795.000000)">
            <g id="img-sophos-lab-intelix" transform="translate(464.000000, 1798.000000)">
                <path d="M107.306151,-2.5 C124.626882,-2.5 140.627874,5.40583994 151.182261,18.618689 L151.716,19.299 L151.798736,19.2665634 C156.997531,17.221616 162.533733,16.1159075 168.214432,16.0307227 L168.925258,16.0253957 C191.571284,16.0253957 210.748855,32.1775699 214.954185,53.9887517 L215.093,54.743 L215.38149,54.7757974 C239.536883,57.6622838 258.113591,78.0532986 258.494048,102.664291 L258.5,103.434743 L253.5,103.434743 C253.5,80.5644875 235.996685,61.5906677 213.42419,59.5988779 L212.738636,59.5437322 L210.708616,59.3962384 L210.441433,57.3784796 C207.699875,36.6743115 189.990861,21.0253957 168.925258,21.0253957 C163.218937,21.0253957 157.67182,22.1755796 152.517695,24.37513 L151.901101,24.6441066 L150.042164,25.4727523 L148.853722,23.8205095 C139.296345,10.5332749 123.975702,2.5 107.306151,2.5 C83.2057939,2.5 62.5464101,19.3008481 57.3803286,42.4799864 L57.2285354,43.1843261 L56.8049459,45.2191294 L54.039304,45.1624241 C53.9042043,45.1609477 53.7775638,45.1602231 53.6526703,45.1602231 C25.4017894,45.1602231 2.5,68.0693621 2.5,96.3301116 C2.5,124.591911 25.4012178,147.5 53.6526703,147.5 C54.1786354,147.5 54.7190423,147.49024 55.2870468,147.471085 L55.8647378,147.448811 L55.9725667,147.446484 L209.564,147.446 L210.095093,147.439405 C233.904069,147.124628 253.112422,127.911454 253.494208,104.156768 L253.5,103.435554 L258.5,103.435554 C258.5,128.916652 239.046913,149.889659 214.137551,152.226864 L213.889,152.247 L213.977788,152.446484 L56.028,152.446 L55.4508178,152.468406 L54.6375884,152.490174 C54.5041831,152.492781 54.3717406,152.494875 54.2401054,152.496449 L53.6526703,152.5 C22.6394582,152.5 -2.5,127.352999 -2.5,96.3301116 C-2.5,65.6185156 22.1397203,40.663772 52.7240715,40.1677483 L52.788,40.167 L52.8646265,39.858149 C59.0259727,15.4577918 80.9254275,-2.13423813 106.505587,-2.49436709 L107.306151,-2.5 Z" id="Stroke-69" fill="#055BB5" fill-rule="nonzero"></path>
                <g id="Group-135" transform="translate(60.000000, 21.000000)">
                    <path d="M65.8425625,116.074562 L68.248375,116.074562 L68.248375,103.11275 L65.8425625,103.11275 L65.8425625,116.074562 Z M65.8425625,99.62225 L65.8425625,99.62225 C65.8425625,98.9568125 66.38125,98.4189375 67.0450625,98.4189375 C67.7096875,98.4189375 68.248375,98.9568125 68.248375,99.62225 C68.248375,100.286062 67.7096875,100.82475 67.0450625,100.82475 C66.38125,100.82475 65.8425625,100.286062 65.8425625,99.62225 L65.8425625,99.62225 Z" id="Fill-117" fill="#055BB5"></path>
                    <path d="M82.3089313,108.066644 L82.3089313,116.074644 L79.9031188,116.074644 L79.9031188,108.066644 C79.9031188,106.702456 78.7932438,105.591769 77.4282438,105.591769 L73.8914313,105.591769 L73.8914313,116.074644 L71.4848063,116.074644 L71.4848063,103.186769 L77.4282438,103.186769 C80.1200563,103.186769 82.3089313,105.374831 82.3089313,108.066644" id="Fill-119" fill="#055BB5"></path>
                    <polygon id="Fill-120" fill="#055BB5" points="90.9417438 103.266963 90.9417438 105.672775 88.4546813 105.672775 88.4546813 116.075213 86.0496812 116.075213 86.0496812 105.672775 83.5626187 105.672775 83.5626187 103.266963 86.0496812 103.266963 86.0496812 99.48315 88.4546813 99.48315 88.4546813 103.266963"></polygon>
                    <path d="M93.8600813,108.8347 L101.487831,108.8282 C101.046644,107.267387 99.7303938,105.915388 97.7787687,105.915388 C95.9287063,105.915388 94.3776438,107.1512 93.8600813,108.8347 L93.8600813,108.8347 Z M103.513394,112.794825 L103.523956,112.800512 C102.467706,114.991825 100.211394,116.408012 97.7787687,116.408012 C94.2638938,116.408012 91.4055187,113.55045 91.4055187,110.034762 C91.4055187,106.518263 94.2638938,103.6607 97.7787687,103.6607 C101.165269,103.6607 103.861144,106.383387 103.91802,109.8617 L103.91802,109.878762 C103.918831,110.4597 103.447581,110.93095 102.866644,110.931762 L93.7674563,110.939888 C94.1818313,112.776138 95.8198312,114.153325 97.7787687,114.153325 C99.1210188,114.153325 100.374706,113.483013 101.138456,112.405638 L103.513394,112.794825 Z" id="Fill-121" fill="#055BB5"></path>
                    <polygon id="Fill-122" fill="#055BB5" points="105.824875 116.075375 108.2315 116.075375 108.2315 97.7786875 105.824875 97.7786875"></polygon>
                    <path d="M111.62775,116.074562 L114.034375,116.074562 L114.034375,103.11275 L111.62775,103.11275 L111.62775,116.074562 Z M111.62775,99.62225 L111.62775,99.62225 C111.62775,98.9568125 112.166438,98.4189375 112.831875,98.4189375 C113.495687,98.4189375 114.034375,98.9568125 114.034375,99.62225 C114.034375,100.286062 113.495687,100.82475 112.831875,100.82475 C112.166438,100.82475 111.62775,100.286062 111.62775,99.62225 L111.62775,99.62225 Z" id="Fill-123" fill="#055BB5"></path>
                    <polygon id="Fill-124" fill="#055BB5" points="128.949925 116.074969 125.98105 116.074969 122.638425 111.435594 119.329113 116.074969 116.372425 116.074969 121.15155 109.382406 116.618613 103.113156 119.589113 103.113156 122.6303 107.319469 125.64305 103.113156 128.601363 103.113156 124.116363 109.373469"></polygon>
                    <path d="M22.217325,44.068375 C21.9882,44.4283125 21.8801375,45.004375 21.8801375,45.777875 C21.8801375,47.476 22.467575,48.2495 23.7748875,48.2495 C25.05945,48.2495 25.6477,47.476 25.6477,45.7998125 C25.6477,44.100875 25.070825,43.33875 23.7748875,43.33875 C23.0663875,43.33875 22.5106375,43.600375 22.217325,44.068375 M26.6487,43.2306875 C27.095575,43.818125 27.345825,44.7760625 27.345825,45.898125 C27.345825,47.1713125 26.942825,48.217 26.2237625,48.793875 C25.6802,49.229375 24.8522625,49.4690625 23.8723875,49.4690625 C22.47895,49.4690625 21.378825,49.0108125 20.8125125,48.195875 C20.387575,47.59625 20.1812,46.801625 20.1812,45.8315 C20.1812,44.4396875 20.5622625,43.382625 21.281325,42.8163125 C21.846825,42.358875 22.740575,42.1078125 23.7635125,42.1078125 C25.05945,42.1078125 26.0937625,42.511625 26.6487,43.2306875" id="Fill-125" fill="#001C4B"></path>
                    <path d="M31.9176813,45.6366625 C32.3312438,45.6366625 32.5701187,45.582225 32.7334313,45.4302875 C32.9292438,45.2661625 33.0494937,44.9184125 33.0494937,44.5154125 C33.0494937,44.0360375 32.8536812,43.6882875 32.5164938,43.5680375 C32.3962437,43.5241625 32.2004313,43.5030375 31.9501813,43.5030375 L29.8165562,43.5030375 L29.8165562,45.6366625 L31.9176813,45.6366625 Z M29.8165562,49.4684125 L28.2703688,49.4684125 L28.2703688,42.2062875 L31.8957438,42.2062875 C33.1697437,42.2062875 33.6158062,42.3371 34.0951813,42.871725 C34.5201187,43.3291625 34.7476188,43.9271625 34.7476188,44.56985 C34.7476188,45.331975 34.4437437,46.0396625 33.9424313,46.4637875 C33.5183063,46.8229125 33.1258688,46.9317875 32.2987437,46.9317875 L29.8165562,46.9317875 L29.8165562,49.4684125 Z" id="Fill-126" fill="#001C4B"></path>
                    <polygon id="Fill-127" fill="#001C4B" points="41.5407688 49.4689812 39.9945813 49.4689812 39.9945813 46.4749187 37.1971438 46.4749187 37.1971438 49.4689812 35.6509563 49.4689812 35.6509563 42.2068562 37.1971438 42.2068562 37.1971438 45.1789812 39.9945813 45.1789812 39.9945813 42.2068562 41.5407688 42.2068562"></polygon>
                    <path d="M44.5158188,44.068375 C44.2866938,44.4283125 44.1778188,45.004375 44.1778188,45.777875 C44.1778188,47.476 44.7652563,48.2495 46.0717563,48.2495 C47.3571313,48.2495 47.9445688,47.476 47.9445688,45.7998125 C47.9445688,44.100875 47.3676938,43.33875 46.0717563,43.33875 C45.3640687,43.33875 44.8083188,43.600375 44.5158188,44.068375 M48.9463812,43.2306875 C49.3932562,43.8189375 49.6435062,44.7760625 49.6435062,45.898125 C49.6435062,47.1713125 49.2405063,48.217 48.5222562,48.793875 C47.9778813,49.229375 47.1499438,49.4690625 46.1692563,49.4690625 C44.7758187,49.4690625 43.6773188,49.0108125 43.1110063,48.195875 C42.6860687,47.59625 42.4788813,46.801625 42.4788813,45.8315 C42.4788813,44.4396875 42.8599437,43.382625 43.5790062,42.8163125 C44.1445063,42.3596875 45.0382562,42.1078125 46.0611937,42.1078125 C47.3571313,42.1078125 48.3914437,42.511625 48.9463812,43.2306875" id="Fill-128" fill="#001C4B"></path>
                    <path d="M12.88105,48.1483437 L16.6673,48.1483437 C17.25555,48.1483437 17.5773,48.0930938 17.7658,47.9704062 C17.9989875,47.8265937 18.131425,47.5820312 18.131425,47.2935937 C18.131425,46.9490937 17.9543,46.6509062 17.6553,46.5062812 C17.4993,46.4169063 17.211675,46.3730312 16.8558,46.3730312 L15.2763,46.3730312 C14.3882375,46.3730312 13.812175,46.2178438 13.4229875,45.8855312 C12.980175,45.4963437 12.723425,44.8975313 12.723425,44.2532188 C12.723425,43.3099063 13.2458625,42.4884687 14.0112375,42.2235938 C14.3443625,42.1000937 14.731925,42.0675938 15.59805,42.0675938 L19.457425,42.0675938 L19.457425,43.3879063 L15.9531125,43.3879063 C15.25355,43.3992812 14.9838,43.3992812 14.7506125,43.4537187 C14.4402375,43.5317187 14.2517375,43.8209687 14.2517375,44.2093437 C14.2517375,44.5416562 14.4061125,44.8081563 14.673425,44.9308438 C14.8952375,45.0299687 15.2868625,45.0527187 15.8198625,45.0527187 L17.006925,45.0527187 C18.0948625,45.0527187 18.6831125,45.2184687 19.1153625,45.6620937 C19.4484875,45.9960312 19.6703,46.6509062 19.6703,47.2935937 C19.6703,48.0817188 19.3038625,48.8145937 18.7269875,49.1696563 C18.3613625,49.4020313 17.8949875,49.4686562 16.7964875,49.4686562 L12.88105,49.4686562 L12.88105,48.1483437 Z" id="Fill-129" fill="#001C4B"></path>
                    <path d="M50.3334813,48.1483437 L54.1189188,48.1483437 C54.7079813,48.1483437 55.0297313,48.0939062 55.2190438,47.9704062 C55.4514188,47.8265937 55.5838563,47.5820312 55.5838563,47.2944063 C55.5838563,46.9490937 55.4075438,46.6509062 55.1069188,46.5062812 C54.9525438,46.4177187 54.6632938,46.3730312 54.3082313,46.3730312 L52.7279188,46.3730312 C51.8406688,46.3730312 51.2637938,46.2178438 50.8746063,45.8855312 C50.4309813,45.4963437 50.1758563,44.8975313 50.1758563,44.2532188 C50.1758563,43.3099063 50.6966688,42.4884687 51.4636688,42.2235938 C51.7959813,42.1000937 52.1835438,42.0675938 53.0496688,42.0675938 L56.9090438,42.0675938 L56.9090438,43.3879063 L53.4047313,43.3879063 C52.7059813,43.3992812 52.4354188,43.3992812 52.2030438,43.4537187 C51.8910438,43.5317187 51.7033563,43.8209687 51.7033563,44.2093437 C51.7033563,44.5416562 51.8577313,44.8081563 52.1250438,44.9308438 C52.3468563,45.0307813 52.7392938,45.0527187 53.2722938,45.0527187 L54.4585438,45.0527187 C55.5472938,45.0527187 56.1355438,45.2192812 56.5686063,45.6620937 C56.9009188,45.9960312 57.1219188,46.6509062 57.1219188,47.2944063 C57.1219188,48.0817188 56.7554813,48.8145937 56.1794188,49.1696563 C55.8129813,49.4020313 55.3466063,49.4686562 54.2481063,49.4686562 L50.3334813,49.4686562 L50.3334813,48.1483437 Z" id="Fill-130" fill="#001C4B"></path>
                    <path d="M36.8736063,86.4005188 C30.1217313,86.4005188 24.6292313,80.9080188 24.6292313,74.1569563 C24.6292313,67.4050813 30.1217313,61.9125813 36.8736063,61.9125813 C43.6254813,61.9125813 49.1179812,67.4050813 49.1179812,74.1569563 C49.1179812,80.9080188 43.6246688,86.4005188 36.8736063,86.4005188 L36.8736063,86.4005188 Z M55.9665438,73.7271438 C55.7366062,63.3758938 47.2801062,55.0526437 36.8736063,55.0526437 C26.3232937,55.0526437 17.7701063,63.6058313 17.7701063,74.1561437 C17.7701063,84.7072687 26.3232937,93.2596438 36.8736063,93.2596438 C41.5926062,93.2596438 45.9086063,91.5452687 49.2414812,88.7104562 L49.2414812,92.2545813 L55.9771062,92.2545813 L55.9771062,73.7230813 L55.9665438,73.7271438 Z" id="Fill-131" fill="#055BB5"></path>
                    <path d="M118.368413,70.0957563 C114.433475,68.5528188 112.4656,66.9619437 112.4656,65.3231312 C112.4656,63.0408188 113.868788,61.6563188 116.9701,61.6563188 C118.28635,61.6563188 119.574975,62.1413812 120.541038,62.6240062 C121.4941,63.1001312 122.617788,63.7988813 123.912913,64.7161938 L127.936413,59.3805063 C124.137163,56.4408813 120.676725,54.9653812 117.556725,54.9653812 C114.133663,54.9653812 111.287475,55.9671937 109.0206,57.9708188 C106.752913,59.9736312 105.619475,62.4801938 105.619475,65.4921312 C105.619475,67.9198813 106.416538,69.9592562 108.011475,71.6110688 C109.6056,73.2636938 112.480225,74.8960063 116.63535,76.5088187 C120.78885,78.1216312 122.867225,79.9367563 122.867225,81.9566313 C122.867225,83.0973813 122.27085,84.3128813 121.23085,85.0920687 C120.058413,85.9720062 118.4976,86.3912563 116.9181,86.3912563 C114.635788,86.3912563 112.4656,85.2334438 110.3596,83.1843188 L110.120725,83.2996938 C109.093725,84.4128188 107.178663,86.4448813 105.777913,87.9260687 C108.817475,91.4336313 112.537913,93.1910688 116.942475,93.1910688 C120.307038,93.1910688 123.232038,92.0592563 125.719913,89.7931938 C128.206163,87.5287562 129.4501,84.8759438 129.4501,81.8363812 C129.4501,79.2355688 128.586413,77.0141937 126.860663,75.1730688 C125.1341,73.3319438 122.30335,71.6395062 118.368413,70.0957563" id="Fill-132" fill="#055BB5"></path>
                    <path d="M13.479375,93.3725812 L12.0550625,93.3725812 C8.8164375,93.3725812 5.8524375,92.2513312 3.7090625,90.2152062 C1.5803125,88.1953312 0.4086875,85.4645187 0.4086875,82.5257062 L0.4086875,41.9080187 L7.5960625,41.9080187 L7.5960625,81.5539562 C7.5960625,83.7078937 9.429875,86.1843937 12.0550625,86.1843937 L13.479375,86.1843937 L13.479375,93.3725812 Z" id="Fill-133" fill="#055BB5"></path>
                    <path d="M81.4337875,86.4005188 L81.4337875,86.4005188 L81.4337875,86.3793937 C74.6941,86.3793937 69.21135,80.8966438 69.21135,74.1569563 L69.21135,73.4525187 C69.5777875,67.0272687 74.91835,61.9125813 81.4337875,61.9125813 C88.1856625,61.9125813 93.6781625,67.4050812 93.6781625,74.1569563 C93.6781625,80.9080187 88.1856625,86.4005188 81.4337875,86.4005188 M62.001225,40.2098937 C59.59135,37.6285812 55.7620375,35.9223313 50.2955375,34.9952687 C45.1881625,34.1291437 40.8932875,33.1452063 37.7806,31.7517687 C40.5731625,31.8289562 43.5745375,31.6599562 46.5287875,31.4942063 C47.3364125,31.4487062 48.1481,31.4048313 48.9565375,31.3650187 C49.2295375,32.7113312 50.4222875,33.7277687 51.848225,33.7277687 C53.3164125,33.7277687 54.53435,32.6487687 54.7577875,31.2431437 C57.1636,31.2992063 59.365475,31.5397063 61.123725,32.1498937 C65.355225,33.6197063 67.032225,36.0937687 67.5311,38.9285813 C66.1912875,40.1188937 64.939225,41.5220813 64.0007875,43.2502687 C63.5051625,42.1217063 62.84135,41.1101437 62.001225,40.2098937 M51.848225,29.2070187 C52.71435,29.2070187 53.4196,29.9122688 53.4196,30.7783938 C53.4196,31.6437063 52.71435,32.3489563 51.848225,32.3489563 C50.9821,32.3489563 50.27685,31.6437063 50.27685,30.7783938 C50.27685,29.9122688 50.9821,29.2070187 51.848225,29.2070187 M72.5515375,36.9070813 C72.7311,36.7860188 72.9074125,36.6673937 73.0812875,36.5495813 C73.3315375,37.5530188 73.41685,38.5548312 73.3396625,39.5298313 C71.5407875,40.5088938 70.129475,41.5009563 69.0252875,42.5702062 C69.102475,41.5342688 69.1097875,40.4950813 69.001725,39.4786438 C70.1701,38.5117687 71.40185,37.6813937 72.5515375,36.9070813 M63.2305375,24.8211437 C58.4985375,22.6964562 54.66435,20.8082062 51.5890375,19.0743312 C52.9832875,17.9059562 54.8796625,16.5052062 57.1627875,15.2620812 C58.8024125,16.1493312 60.7215375,17.0219563 62.91935,17.8791437 C64.978225,18.6818938 66.82585,19.5488313 68.4451625,20.4588312 C68.322475,20.7822062 68.2526,21.1307687 68.2526,21.4972062 C68.2526,23.1238312 69.5761625,24.4473938 71.2027875,24.4473938 C71.92185,24.4473938 72.5807875,24.1882063 73.0926625,23.7592062 C74.919975,25.4646437 75.995725,27.2423937 76.200475,29.0014562 C76.424725,30.9319563 75.5854125,32.7519563 73.769475,34.3192687 C72.5677875,31.5713937 69.7646625,27.7550812 63.2305375,24.8211437 M71.2027875,19.9258312 C72.0689125,19.9258312 72.7741625,20.6302687 72.7741625,21.4972063 C72.7741625,22.3633312 72.0689125,23.0677687 71.2027875,23.0677687 C70.3366625,23.0677687 69.632225,22.3633312 69.632225,21.4972063 C69.632225,20.6302687 70.3366625,19.9258312 71.2027875,19.9258312 M67.002975,12.1518312 C70.4796625,11.8495813 73.3851625,12.2997063 75.777975,13.2478937 C75.6260375,13.6037688 75.5399125,13.9953938 75.5399125,14.4065187 C75.5399125,16.0339563 76.863475,17.3567063 78.4909125,17.3567063 C79.3326625,17.3567063 80.09235,17.0000187 80.630225,16.4320813 C82.6297875,18.4552063 83.873725,20.9560813 84.4579125,23.4455812 C85.1209125,26.2730812 84.9714125,29.1875187 84.0354125,31.6518312 C83.779475,32.3245812 83.47235,32.9445188 83.1181,33.5116437 C82.628975,33.1500812 82.0261,32.9339562 81.37285,32.9339562 C79.746225,32.9339562 78.4226625,34.2567063 78.4226625,35.8841437 C78.4226625,36.3107063 78.5152875,36.7161438 78.6794125,37.0825813 C77.21935,37.6659562 75.91285,38.2355188 74.747725,38.8050813 C74.744475,37.8983312 74.6250375,36.9769563 74.380475,36.0555813 C74.3496,35.9385813 74.3130375,35.8142687 74.27485,35.6875187 C76.6952875,33.7610812 77.86285,31.3577063 77.57035,28.8422063 C77.3989125,27.3667062 76.6172875,25.1201438 73.9246625,22.6338938 C74.0709125,22.2837063 74.152975,21.8993938 74.152975,21.4972063 C74.152975,19.8705812 72.8294125,18.5470187 71.2027875,18.5470187 C70.44635,18.5470187 69.7565375,18.8354562 69.2332875,19.3067063 C67.6196625,18.3958937 65.7021625,17.4842687 63.41985,16.5937687 C61.5730375,15.8738938 60.005725,15.1727063 58.669975,14.4958937 C61.1221,13.3348313 63.9366,12.4183312 67.002975,12.1518312 M78.4909125,12.8359562 C79.356225,12.8359562 80.061475,13.5403937 80.061475,14.4065187 C80.061475,15.2726437 79.356225,15.9778937 78.4909125,15.9778937 C77.6247875,15.9778937 76.9195375,15.2726437 76.9195375,14.4065187 C76.9195375,13.5403937 77.6247875,12.8359562 78.4909125,12.8359562 M81.37285,37.4547062 C80.5059125,37.4547062 79.801475,36.7502687 79.801475,35.8841437 C79.801475,35.0180188 80.5059125,34.3127687 81.37285,34.3127687 C82.2381625,34.3127687 82.9434125,35.0180188 82.9434125,35.8841437 C82.9434125,36.7502687 82.2381625,37.4547062 81.37285,37.4547062 M71.6707875,44.0107687 C71.4562875,44.3048937 71.2531625,44.5811437 71.058975,44.8435812 C68.9066625,47.7645188 67.98935,49.0125187 67.851225,53.2009562 L67.851225,51.5328937 C67.851225,50.2540187 68.1169125,48.7094563 68.39885,47.0755187 C68.517475,46.3881437 68.63935,45.6788312 68.7474125,44.9581437 C69.7175375,43.5768938 71.091475,42.3971438 73.0260375,41.2555812 C72.745725,42.2297687 72.2931625,43.1576437 71.6707875,44.0107687 M67.698475,40.6527063 C67.7350375,41.9015188 67.6082875,43.1917688 67.4246625,44.4747063 C65.5835375,47.2331438 65.1651,50.6090812 65.0992875,55.4093312 L65.0992875,49.0791438 C65.0992875,47.6385812 64.9465375,46.3239562 64.64185,45.1222687 C65.3641625,43.3347688 66.453725,41.8836438 67.698475,40.6527063 M33.0851625,6.51958125 C33.9512875,6.51958125 34.6565375,7.22483125 34.6565375,8.09095625 C34.6565375,8.95708125 33.9512875,9.66151875 33.0851625,9.66151875 C32.2190375,9.66151875 31.5146,8.95708125 31.5146,8.09095625 C31.5146,7.22483125 32.2190375,6.51958125 33.0851625,6.51958125 M38.1957875,16.5539562 C39.0619125,16.5539562 39.76635,17.2583938 39.76635,18.1245187 C39.76635,18.9906438 39.0619125,19.6950812 38.1957875,19.6950812 C37.3296625,19.6950812 36.625225,18.9906438 36.625225,18.1245187 C36.625225,17.2583938 37.3296625,16.5539562 38.1957875,16.5539562 M46.6311625,24.3572062 C45.76585,24.3572062 45.0597875,23.6519562 45.0597875,22.7866437 C45.0597875,21.9205188 45.76585,21.2152687 46.6311625,21.2152687 C47.4972875,21.2152687 48.2025375,21.9205188 48.2025375,22.7866437 C48.2025375,23.6527687 47.4972875,24.3572062 46.6311625,24.3572062 M44.8192875,1.82820625 C45.6854125,1.82820625 46.38985,2.53264375 46.38985,3.39876875 C46.38985,4.26489375 45.6854125,4.96933125 44.8192875,4.96933125 C43.9531625,4.96933125 43.2479125,4.26489375 43.2479125,3.39876875 C43.2479125,2.53264375 43.9531625,1.82820625 44.8192875,1.82820625 M69.12035,3.99433125 C69.986475,3.99433125 70.6909125,4.69876875 70.6909125,5.56570625 C70.6909125,6.43183125 69.986475,7.13626875 69.12035,7.13626875 C68.2534125,7.13626875 67.548975,6.43101875 67.548975,5.56489375 C67.548975,4.69876875 68.2534125,3.99433125 69.12035,3.99433125 M69.21135,59.4767062 L69.21135,54.4188937 C69.21135,49.6771437 69.8971,48.7460187 72.170475,45.6609562 C72.3646625,45.3977062 72.5694125,45.1190187 72.784725,44.8232687 C73.76785,43.4753313 74.38535,41.9665187 74.6291,40.3821437 C76.0274125,39.6736437 77.659725,38.9643312 79.5691,38.2135813 C80.067975,38.6003313 80.6936,38.8343313 81.37285,38.8343313 C82.999475,38.8343313 84.3230375,37.5107687 84.3230375,35.8841437 C84.3230375,35.4332062 84.2190375,35.0090812 84.03785,34.6263937 C86.083725,31.6664563 86.81985,27.4780187 85.8001625,23.1303312 C85.079475,20.0574563 83.5137875,17.3038937 81.3281625,15.2035813 C81.3996625,14.9500813 81.4402875,14.6827687 81.4411,14.4065187 C81.4411,12.7798938 80.1175375,11.4563312 78.4909125,11.4563312 C77.783225,11.4563312 77.133225,11.7073937 76.6246,12.1242062 C73.7946625,10.9298312 70.4926625,10.4642687 66.8835375,10.7778938 C63.2175375,11.0963938 59.9261,12.2598938 57.1506,13.6817688 C53.063725,11.3490812 51.760475,9.35276875 51.4834125,7.93739375 C51.1990375,6.48870625 51.9839125,5.38533125 52.6924125,4.71339375 C56.4234125,1.17901875 64.1096625,4.07233125 66.2302875,4.97176875 C66.190475,5.16351875 66.1701625,5.36176875 66.1701625,5.56489375 C66.1701625,7.19233125 67.493725,8.51508125 69.12035,8.51508125 C70.746975,8.51508125 72.0705375,7.19233125 72.0705375,5.56570625 C72.0705375,3.93826875 70.746975,2.61551875 69.12035,2.61551875 C68.19085,2.61551875 67.3629125,3.04776875 66.8217875,3.72051875 C64.562225,2.74389375 56.1569125,-0.46873125 51.7434125,3.71239375 C50.38735,4.99776875 49.8145375,6.59189375 50.1297875,8.20226875 C50.5466,10.3367063 52.429975,12.4264563 55.7441625,14.4471437 C53.482975,15.7512062 51.6361625,17.1738938 50.30285,18.3317062 C46.300475,15.9632688 43.7532875,13.8735188 42.309475,11.8422688 C40.2920375,9.00258125 41.867475,6.51226875 42.7344125,5.48445625 C43.2690375,6.01826875 44.0067875,6.34895625 44.8192875,6.34895625 C46.4451,6.34895625 47.7686625,5.02539375 47.7686625,3.39876875 C47.7686625,1.77214375 46.4451,0.44858125 44.8192875,0.44858125 C43.1926625,0.44858125 41.8691,1.77214375 41.8691,3.39876875 C41.8691,3.69126875 41.912975,3.97239375 41.9926,4.23889375 C40.4886625,5.77614375 38.6979125,9.13989375 41.1857875,12.6409562 C42.71085,14.7883937 45.244225,16.9171437 49.2262875,19.3067063 C48.7859125,19.7243312 48.4479125,20.0672063 48.2220375,20.3052688 C47.762975,20.0103313 47.2177875,19.8364563 46.6311625,19.8364563 C45.0045375,19.8364563 43.680975,21.1592063 43.680975,22.7866437 C43.680975,24.4132687 45.0045375,25.7360187 46.6311625,25.7360187 C48.2577875,25.7360187 49.58135,24.4132687 49.58135,22.7866437 C49.58135,22.2463312 49.4326625,21.7409563 49.1791625,21.3054563 C49.43185,21.0405812 49.8730375,20.5969562 50.4807875,20.0420188 C53.65685,21.8563313 57.655975,23.8307063 62.6650375,26.0788938 C69.0716,28.9559562 71.6220375,32.6585188 72.6376625,35.1829562 C72.3606,35.3722687 72.0754125,35.5648313 71.7812875,35.7630812 C70.8192875,36.4106438 69.7711625,37.1175188 68.7344125,37.9275812 C67.9024125,34.5492063 65.5616,32.2311438 61.5762875,30.8474562 C59.60435,30.1633312 57.2416,29.9041437 54.6481,29.8537688 C54.2589125,28.6788937 53.151475,27.8282062 51.848225,27.8282062 C50.49785,27.8282062 49.358725,28.7406438 49.010975,29.9805187 C48.1667875,30.0227687 47.314475,30.0690813 46.4516,30.1178313 C42.5052875,30.3388312 38.47285,30.5638937 35.05385,30.1950187 C33.41585,28.9689562 32.455475,27.4812688 32.315725,25.6190187 C32.18735,23.9022062 33.6336,22.2438937 34.8694125,21.1543313 C35.2846,20.7887062 35.7014125,20.4661437 36.088975,20.1850187 C36.6244125,20.7334562 37.3711,21.0747063 38.1957875,21.0747063 C39.8224125,21.0747063 41.145975,19.7511437 41.145975,18.1245187 C41.145975,16.4978937 39.8224125,15.1743313 38.1957875,15.1743313 C36.5691625,15.1743313 35.2456,16.4978937 35.2456,18.1245187 C35.2456,18.4267688 35.2919125,18.7184562 35.3764125,18.9930813 C33.469475,20.3597062 30.72485,22.8459563 30.9401625,25.7222062 C31.0596,27.3163312 31.665725,28.6593937 32.6350375,29.8017688 C31.6966,29.5880813 30.830475,29.3053313 30.0586,28.9348312 C26.254475,27.1115813 23.7674125,24.2125812 23.235225,20.9828938 C22.7972875,18.3276437 23.7332875,15.6455812 25.802725,13.6232688 C28.70985,10.7811437 30.0561625,9.91664375 30.58835,9.65420625 C31.109975,10.4853938 32.032975,11.0403312 33.0851625,11.0403312 C34.7117875,11.0403312 36.03535,9.71758125 36.03535,8.09095625 C36.03535,6.46351875 34.7117875,5.14076875 33.0851625,5.14076875 C31.4585375,5.14076875 30.134975,6.46351875 30.134975,8.09095625 C30.134975,8.17301875 30.1406625,8.25426875 30.1471625,8.33470625 C29.2591,8.72876875 27.697475,9.84189375 24.8382875,12.6360812 C22.4430375,14.9777062 21.3624125,18.1017687 21.8742875,21.2071437 C22.481225,24.8877687 25.246975,28.1572687 29.462225,30.1787687 C30.9271625,30.8807687 32.6626625,31.2975813 34.56635,31.5267062 C38.28435,34.1226437 44.3074125,35.3787687 50.0647875,36.3553937 C58.89585,37.8528312 62.1092875,41.3587687 63.2012875,45.0280188 C62.6634125,46.4970187 62.3449125,48.1675187 62.3449125,50.0898937 C62.3449125,50.0898937 62.3302875,73.9717062 62.3302875,74.1569563 C62.3302875,84.7072687 70.883475,93.2596437 81.4337875,93.2596437 C91.9841,93.2596437 100.537287,84.7072687 100.537287,74.1569563 C100.537287,63.6058313 91.9841,55.0534562 81.4337875,55.0534562 C76.78385,55.0534562 72.5239125,56.7158312 69.21135,59.4767062 Z" id="Fill-134" fill="#055BB5"></path>
                </g>
            </g>
        </g>
    </g>
</svg>